<?xml version="1.0" encoding="UTF-8"?>
<!-- Generator: visioncortex VTracer 0.6.12 -->
<svg version="1.1" xmlns="http://www.w3.org/2000/svg" width="1254" height="1254">
<path d="M0 0 C0.706 0.343 1.412 0.685 2.139 1.038 C19.805 9.741 48.379 23.95 58 42 C58.205 46.109 57.636 48.007 55.438 51.438 C52.707 53.188 50.576 53.875 47.312 53.695 C42.596 52.277 39.228 48.572 35.604 45.369 C26.514 37.61 16.335 30.946 6 25 C5.406 24.653 4.812 24.305 4.201 23.947 C-45.496 -4.865 -105.303 -9.832 -160.277 4.418 C-180.701 9.948 -202.09 19.16 -219 32 C-219.529 32.389 -219.529 32.389 -222.207 34.359 C-225.532 36.832 -228.78 39.392 -232 42 C-232.938 42.758 -233.877 43.516 -234.844 44.297 C-249.961 57.242 -260.528 74.717 -267.062 93.375 C-274.125 113.32 -290.806 121.484 -308.375 130.875 C-321.417 137.999 -333.09 145.89 -344 156 C-344.504 156.46 -345.008 156.92 -345.527 157.395 C-351.048 162.476 -355.652 167.645 -359.824 173.848 C-360.23 174.443 -360.636 175.038 -361.054 175.651 C-362.04 177.097 -363.021 178.548 -364 180 C-362.97 179.723 -361.941 179.447 -360.88 179.161 C-339.371 173.404 -318.063 168.173 -296 165 C-295.19 164.872 -294.38 164.743 -293.545 164.611 C-281.728 162.747 -269.811 162.772 -257.875 162.688 C-257.07 162.678 -256.264 162.668 -255.435 162.658 C-232.322 162.422 -211.569 166.404 -193.688 182.02 C-181.484 194.485 -176.457 212.202 -176.578 229.261 C-177.304 250.498 -184.927 270.556 -195 289 C-195.376 289.691 -195.753 290.382 -196.141 291.094 C-204.507 306.264 -214.854 319.771 -226 333 C-226.216 333.259 -226.216 333.259 -227.31 334.567 C-240.174 349.938 -254.106 364.293 -268.273 378.459 C-270.532 380.719 -272.781 382.987 -275.031 385.256 C-276.489 386.717 -277.947 388.177 -279.406 389.637 C-280.067 390.304 -280.727 390.972 -281.408 391.66 C-291.755 401.957 -291.755 401.957 -297.25 402.062 C-300.46 400.822 -301.499 400.086 -303 397 C-303.625 394.25 -303.625 394.25 -303 391 C-301.02 387.996 -298.533 385.542 -296 383 C-295.77 382.769 -295.77 382.769 -294.604 381.599 C-292.547 379.538 -290.487 377.481 -288.416 375.434 C-284.969 372.016 -281.723 368.49 -278.574 364.793 C-276.952 362.946 -275.253 361.222 -273.5 359.5 C-270.486 356.533 -267.701 353.427 -264.941 350.223 C-262.712 347.67 -260.42 345.181 -258.125 342.688 C-253.204 337.285 -248.572 331.698 -244 326 C-243.041 324.821 -242.081 323.643 -241.121 322.465 C-217.147 292.944 -194.344 258.631 -197 219 C-198.567 208.898 -202.578 198.992 -210.715 192.527 C-224.303 183.445 -239.56 182.442 -255.375 182.562 C-256.226 182.566 -257.076 182.569 -257.953 182.572 C-298.285 182.783 -337.866 191.939 -375.924 204.867 C-380.378 206.344 -384.244 207.585 -389 207 C-391.938 205 -391.938 205 -394 202 C-393.744 195.974 -392.19 191.317 -389.562 185.938 C-389.385 185.571 -389.385 185.571 -388.489 183.714 C-381.869 170.376 -373.01 158.953 -363 148 C-362.212 147.129 -361.425 146.257 -360.613 145.359 C-345.929 129.902 -327.33 119.053 -308.698 109.066 C-295.854 102.136 -287.986 96.104 -283 82 C-272.781 55.592 -254.649 34.725 -232 18 C-231.441 17.586 -230.883 17.173 -230.307 16.747 C-164.288 -31.357 -72.485 -35.191 0 0 Z " fill="#000000" transform="translate(732,353)"/>
<path d="M0 0 C2.176 2.495 3.654 5.266 5.188 8.188 C5.599 8.931 6.011 9.674 6.436 10.439 C7.25 11.912 8.054 13.391 8.847 14.875 C9.94 16.89 11.093 18.855 12.266 20.824 C14.344 24.631 14.712 26.727 14 31 C11.721 33.995 9.995 35.602 6.5 37 C3 37 1.713 36.238 -1 34 C-2.91 31.47 -4.439 28.755 -6 26 C-7.228 23.895 -8.457 21.791 -9.688 19.688 C-10.269 18.681 -10.85 17.674 -11.449 16.637 C-12.575 14.723 -13.768 12.848 -15 11 C-15.438 7.625 -15.438 7.625 -15 4 C-10.332 -1.803 -6.91 -2.991 0 0 Z " fill="#000000" transform="translate(819,428)"/>
<path d="M0 0 C0 1.32 0 2.64 0 4 C-2.203 5.789 -2.203 5.789 -5.25 7.625 C-24.142 19.734 -24.142 19.734 -27.164 30.328 C-29.605 38.13 -34.986 43.992 -42 48 C-49.507 51.526 -56.748 52.17 -64.688 49.75 C-68.892 48.204 -72.795 46.205 -76 43 C-78.859 42.763 -81.699 42.578 -84.562 42.438 C-84.966 42.416 -84.966 42.416 -87.006 42.307 C-89.004 42.2 -91.002 42.1 -93 42 C-93.33 40.68 -93.66 39.36 -94 38 C-87.187 34.418 -80.164 31.615 -73 28.812 C-57.643 22.756 -42.459 16.308 -27.282 9.817 C-24.936 8.814 -22.588 7.814 -20.241 6.813 C-17.588 5.682 -14.941 4.54 -12.298 3.386 C-11.233 2.927 -10.168 2.469 -9.07 1.996 C-8.173 1.605 -7.276 1.213 -6.352 0.81 C-4 0 -4 0 0 0 Z " fill="#000000" transform="translate(610,428)"/>
<path d="M0 0 C3.052 3.933 4.76 7.627 6.148 12.383 C6.33 13.001 6.33 13.001 7.248 16.13 C7.625 17.461 8 18.793 8.375 20.125 C8.472 20.464 8.472 20.464 8.963 22.178 C13.004 36.305 16.204 50.574 19 65 C19.099 65.493 19.099 65.493 19.602 67.99 C20.595 73.092 21.231 77.802 21 83 C21.621 83.04 22.242 83.079 22.882 83.12 C39.415 84.214 55.687 86.088 72 89 C72.894 89.157 73.788 89.315 74.709 89.477 C77.085 89.91 79.449 90.381 81.812 90.875 C83.098 91.141 84.383 91.406 85.707 91.68 C90.029 93.412 91.413 95.161 94 99 C94.788 109.041 84.959 118.658 79 126 C78.322 126.852 77.644 127.704 76.945 128.582 C65.812 142.429 53.645 155.777 39.703 166.832 C38.811 167.547 37.919 168.263 37 169 C36.701 169.192 36.701 169.192 35.186 170.162 C32.114 172.325 30.326 173.962 29.181 177.607 C28.65 180.839 28.301 184.051 28 187.312 C24.828 213.57 16.539 239.711 4.03 263.054 C2.96 265.075 1.936 267.116 0.918 269.164 C-4.452 279.835 -10.872 289.43 -18 299 C-18.44 299.598 -18.88 300.197 -19.333 300.813 C-24.639 308.017 -30.328 314.737 -36.457 321.246 C-38.245 323.183 -39.934 325.109 -41.598 327.145 C-43.527 329.438 -45.341 331.339 -47.625 333.25 C-50.838 335.979 -53.926 338.803 -57 341.688 C-70.111 353.577 -84.789 363.03 -100 372 C-100.329 372.196 -100.329 372.196 -101.994 373.187 C-153.305 403.389 -218.23 410.41 -275.362 395.7 C-303.649 388.191 -329.965 377.149 -352.512 358.094 C-354.044 356.804 -355.605 355.546 -357.207 354.344 C-360.619 351.731 -361.83 350.558 -363.125 346.312 C-363 343 -363 343 -361.938 341.125 C-359.18 339.524 -357.203 339.18 -354 339 C-351.33 340.178 -349.082 341.355 -346.625 342.875 C-345.207 343.711 -343.789 344.547 -342.371 345.383 C-341.649 345.816 -340.927 346.25 -340.183 346.696 C-336.715 348.768 -333.205 350.764 -329.688 352.75 C-329.027 353.124 -328.367 353.498 -327.686 353.884 C-322.268 356.922 -316.725 359.586 -311 362 C-310.841 361.465 -310.681 360.93 -310.517 360.378 C-308.606 354.28 -306.059 348.76 -303.062 343.125 C-302.822 342.67 -302.822 342.67 -301.603 340.37 C-293.098 324.545 -283.19 310.034 -272 296 C-271.209 294.995 -270.417 293.989 -269.602 292.953 C-257.536 277.882 -243.848 263.354 -229 251 C-228.147 250.269 -227.293 249.538 -226.414 248.785 C-185.523 214.088 -138.074 189.102 -87.938 170.688 C-86.915 170.308 -85.893 169.929 -84.84 169.538 C-80.098 167.845 -76.117 166.491 -71 167 C-70.67 168.32 -70.34 169.64 -70 171 C-77.395 174.749 -84.811 178.447 -92.301 182.004 C-121.178 195.722 -149.269 210.922 -175 230 C-176.16 230.818 -177.323 231.631 -178.488 232.441 C-186.185 237.804 -193.373 243.555 -200.464 249.69 C-202.871 251.742 -205.345 253.709 -207.812 255.688 C-211.827 258.952 -215.501 262.387 -219.102 266.098 C-221.018 268.018 -223.006 269.794 -225.062 271.562 C-230.89 276.593 -236.123 282.027 -241.137 287.863 C-242.407 289.32 -243.702 290.754 -245.02 292.168 C-265.819 314.541 -281.452 341.31 -294 369 C-288.848 371.855 -283.65 373.42 -278 374.938 C-277.042 375.196 -276.085 375.455 -275.098 375.721 C-268.217 377.529 -261.311 379.035 -254.312 380.312 C-253.442 380.472 -252.571 380.631 -251.674 380.795 C-194.759 390.655 -134.841 374.807 -88 341.875 C-76.601 333.703 -66.175 324.629 -56 315 C-55.319 314.362 -54.639 313.724 -53.938 313.066 C-48.811 308.118 -44.427 302.572 -40 297 C-39.614 296.528 -39.614 296.528 -37.66 294.141 C-14.695 265.406 3.621 227.864 8 191 C7.368 191.366 6.737 191.733 6.086 192.111 C-9.257 200.969 -24.723 208.987 -41 216 C-41.728 216.319 -42.456 216.638 -43.206 216.966 C-53.807 221.574 -53.807 221.574 -60 220 C-63.018 217.856 -63.864 216.713 -64.562 213.062 C-63.807 208.947 -62.123 207.737 -59 205 C-55.936 203.262 -55.936 203.262 -52.504 201.688 C-51.221 201.088 -49.938 200.488 -48.655 199.888 C-47.987 199.581 -47.32 199.273 -46.632 198.956 C-19.256 186.305 6.034 170.59 29 151 C29.875 150.256 30.751 149.512 31.652 148.746 C45.536 136.572 59.74 123.152 69 107 C68.348 106.945 67.696 106.89 67.024 106.834 C58.878 106.125 50.778 105.144 42.668 104.105 C29.008 102.413 15.379 101.79 1.625 101.812 C0.888 101.813 0.151 101.814 -0.609 101.815 C-68.765 102.001 -139.643 121.807 -192 167 C-193.175 167.992 -194.351 168.983 -195.527 169.973 C-204.421 177.482 -212.383 185.027 -219.688 194.133 C-221.162 195.961 -222.66 197.771 -224.188 199.555 C-241.375 219.75 -254.583 244.731 -261.922 270.199 C-264.522 279.073 -270.675 285.507 -276.643 292.365 C-278 294 -278 294 -280 297 C-280.66 297 -281.32 297 -282 297 C-284.85 261.59 -265.675 223.607 -245 196 C-244.564 195.41 -244.127 194.819 -243.678 194.211 C-236.464 184.507 -228.394 175.689 -220 167 C-219.212 166.183 -218.425 165.365 -217.613 164.523 C-167.914 113.946 -90.683 84.453 -20.436 82.922 C-16.853 82.903 -13.271 82.912 -9.688 82.938 C-9.073 82.94 -9.073 82.94 -5.963 82.951 C-2.975 82.963 0.012 82.979 3 83 C-6.827 34.216 -6.827 34.216 -13.31 15.112 C-14.751 10.703 -15.362 7.603 -14 3 C-9.663 -2.349 -6.279 -2.534 0 0 Z " fill="#000000" transform="translate(849,492)"/>
<path d="M0 0 C0.33 0.99 0.66 1.98 1 3 C-31.958 31.472 -83.537 43.923 -126.125 44.438 C-127.234 44.46 -128.343 44.482 -129.485 44.505 C-137.193 44.483 -137.193 44.483 -141.18 42.098 C-143.547 39.369 -143.962 38.339 -144.375 34.688 C-144 31 -144 31 -141.625 28.125 C-137.706 24.952 -135.72 24.864 -130.719 24.789 C-130.067 24.776 -130.067 24.776 -126.769 24.71 C-126.073 24.697 -125.378 24.684 -124.661 24.67 C-85.28 23.849 -48.119 15.84 -11.227 2.082 C-7.356 0.668 -4.194 -0.402 0 0 Z " fill="#000000" transform="translate(791,740)"/>
<path d="M0 0 C4.263 0.761 5.699 2.589 8.5 5.625 C9.733 6.908 10.966 8.191 12.199 9.473 C13.53 10.877 14.859 12.282 16.188 13.688 C16.526 14.041 16.526 14.041 18.236 15.83 C18.56 16.173 18.56 16.173 20.199 17.91 C20.785 18.528 21.371 19.145 21.975 19.781 C23.535 21.667 24.584 23.359 25.5 25.625 C25.398 26.409 25.296 27.192 25.191 28 C25.632 31.744 27.575 32.799 30.428 35.086 C30.759 35.34 30.759 35.34 32.438 36.625 C39.216 41.846 39.216 41.846 40.504 45.375 C40.5 47.625 40.5 47.625 39.5 49.625 C34.155 49.298 31.688 46.35 28.188 42.688 C27.638 42.136 27.088 41.585 26.521 41.018 C22.5 36.906 22.5 36.906 22.5 34.625 C22.222 34.702 22.222 34.702 20.812 35.09 C17.382 35.791 14.7 36.281 11.543 34.555 C9.397 32.684 7.462 30.689 5.5 28.625 C4.483 27.644 3.462 26.668 2.438 25.695 C1.353 24.652 0.27 23.608 -0.812 22.562 C-1.329 22.069 -1.845 21.575 -2.376 21.066 C-5.604 17.862 -7.772 14.835 -9.5 10.625 C-9.5 7.02 -8.564 5.71 -6.375 2.812 C-3.5 0.625 -3.5 0.625 0 0 Z " fill="#000000" transform="translate(444.5,783.375)"/>
</svg>
